<?xml version="1.0" encoding="UTF-8"?>
<svg version="1.1" xmlns="http://www.w3.org/2000/svg" width="500" height="500">
<path d="M0 0 C165 0 330 0 500 0 C500 165 500 330 500 500 C335 500 170 500 0 500 C0 335 0 170 0 0 Z " fill="#FEFEFE" transform="translate(0,0)"/>
<path d="M0 0 C2.85561523 2.08513791 5.46205173 4.28047152 7.8125 6.9375 C6.28156512 11.60949091 3.70492605 14.95920005 0.6875 18.75 C-0.01439453 19.6462207 -0.01439453 19.6462207 -0.73046875 20.56054688 C-1.87755565 22.02366792 -3.03181234 23.48116297 -4.1875 24.9375 C-8.40373102 24.16057653 -11.08716547 22.01344275 -14.48046875 19.5078125 C-21.48728661 15.44325149 -28.30936811 14.4330027 -36.3125 14.5 C-37.16714844 14.48001953 -38.02179688 14.46003906 -38.90234375 14.43945312 C-45.73470907 14.44470072 -49.90599556 16.07941549 -55.125 20.625 C-56.83308557 24.342598 -56.70544911 27.92339441 -56.1875 31.9375 C-54.32757657 36.58730856 -51.44608091 38.45169991 -47.1875 40.9375 C-44.43722755 41.84410242 -41.65453947 42.3964076 -38.8125 42.9375 C-37.20546481 43.27347758 -35.5986984 43.61074308 -33.9921875 43.94921875 C-32.7851416 44.19744385 -32.7851416 44.19744385 -31.55371094 44.45068359 C-16.23862516 47.60155865 -0.40937998 51.03516837 8.8125 64.9375 C12.93074905 71.24430425 13.17480916 77.67090743 13.25 85 C13.26546875 86.25840698 13.26546875 86.25840698 13.28125 87.54223633 C13.14409952 97.26753883 10.07624297 105.47286514 3.8125 112.9375 C-8.1138035 124.32476153 -21.85235088 126.44923898 -37.71875 126.12109375 C-55.8674132 125.50203977 -70.74122635 119.62846087 -83.65625 106.8671875 C-85.34361358 104.74076503 -86.11516398 103.66043451 -86.1875 100.9375 C-84.7109375 98.60546875 -84.7109375 98.60546875 -82.5625 96.125 C-79.22397737 92.17148636 -76.14134984 88.18365914 -73.1875 83.9375 C-69.26658891 84.46431845 -67.95842384 86.08166695 -65.5625 89.125 C-59.89618501 95.76389144 -52.00242668 101.28137033 -43.07519531 102.14086914 C-40.671636 102.24207431 -38.28058396 102.25950824 -35.875 102.25 C-35.07126953 102.26611328 -34.26753906 102.28222656 -33.43945312 102.29882812 C-27.71580563 102.30343283 -22.35437314 101.54474868 -17.1875 98.9375 C-15.57743968 96.50187999 -15.57743968 96.50187999 -15.1875 93.9375 C-14.8575 93.2775 -14.5275 92.6175 -14.1875 91.9375 C-13.76695897 87.36816001 -13.62624466 83.25645005 -15.4375 79 C-19.06135082 74.72903296 -23.03705806 73.08327671 -28.3125 71.5 C-29.00972168 71.2839209 -29.70694336 71.0678418 -30.42529297 70.84521484 C-34.92474896 69.49188235 -39.4267692 68.43496726 -44.03320312 67.51831055 C-58.11970316 64.70131231 -70.20549485 59.818667 -78.77734375 47.6875 C-83.63895013 39.06858565 -83.56695343 28.53317169 -82.1875 18.9375 C-79.52226187 10.02209075 -74.33447514 2.95977014 -66.3203125 -1.74609375 C-46.54579855 -12.02785475 -19.09519108 -11.98787555 0 0 Z " fill="#030303" transform="translate(225.1875,198.0625)"/>
<path d="M0 0 C8.91 0 17.82 0 27 0 C27.99 2.97 28.98 5.94 30 9 C30.9951989 11.91272892 31.99343279 14.82422566 32.99609375 17.734375 C33.56064828 19.37756933 34.1250981 21.02079964 34.68945312 22.6640625 C35.56158114 25.20249506 36.43430068 27.74071668 37.30883789 30.27832031 C40.31572513 39.00618606 43.27831381 47.73051556 45.94750977 56.56884766 C48.28254744 64.18114631 50.78603695 71.7411605 53.25 79.3125 C53.80998807 81.03577732 54.36988452 82.75908442 54.9296875 84.48242188 C56.28540447 88.65529124 57.64235308 92.82775817 59 97 C59.66 97 60.32 97 61 97 C61.31453125 95.90042969 61.6290625 94.80085938 61.953125 93.66796875 C65.82603572 80.24674983 65.82603572 80.24674983 68 74.5 C69.58158711 70.31295623 70.88043932 66.07780454 72.109375 61.77734375 C75.25375791 50.94202925 78.71035745 40.20687292 82.15820312 29.46508789 C83.26449643 26.01732185 84.36681007 22.56830022 85.46875 19.11914062 C86.17164261 16.92440473 86.87475904 14.7297405 87.578125 12.53515625 C88.07182587 10.99010155 88.07182587 10.99010155 88.57550049 9.41383362 C88.87961853 8.46781784 89.18373657 7.52180206 89.49707031 6.54711914 C89.76400696 5.71459122 90.0309436 4.88206329 90.30596924 4.02430725 C91 2 91 2 92 0 C100.91 0 109.82 0 119 0 C115.62410379 11.25298737 115.62410379 11.25298737 114.32104492 15.16625977 C113.87784409 16.50052254 113.87784409 16.50052254 113.4256897 17.86174011 C113.11376678 18.79552994 112.80184387 19.72931976 112.48046875 20.69140625 C112.14534271 21.69814896 111.81021667 22.70489166 111.4649353 23.74214172 C110.37425688 27.01619786 109.28108 30.28941198 108.1875 33.5625 C107.62384232 35.2516452 107.62384232 35.2516452 107.04879761 36.97491455 C99.8027665 58.68557168 92.44496397 80.35682755 85 102 C84.73987122 102.75633728 84.47974243 103.51267456 84.21173096 104.29193115 C81.14843191 113.1971484 78.07571947 122.09905428 75 131 C64.77 131 54.54 131 44 131 C41.52528224 124.81320559 39.1539231 118.74145337 37.08984375 112.4296875 C36.83626602 111.66375275 36.58268829 110.89781799 36.32142639 110.1086731 C35.52385677 107.69840365 34.73037033 105.28681894 33.9375 102.875 C33.14051908 100.45622462 32.34260067 98.03776856 31.54286194 95.61990356 C31.04914527 94.12671792 30.55703025 92.63300127 30.06687927 91.13864136 C28.9867488 87.86718926 27.86206522 84.63664391 26.63891602 81.41455078 C24.48291723 75.72983383 22.6119389 69.94593782 20.70019531 64.17575073 C19.98648458 62.02170927 19.27082497 59.86832369 18.5546875 57.71508789 C16.77746553 52.37014111 15.00353028 47.02410478 13.22949219 41.67810059 C11.72632359 37.14877856 10.22189161 32.6198799 8.71582031 28.09152222 C8.01503107 25.98273098 7.31606916 23.87334007 6.6171875 21.76391602 C4.03219761 13.96286136 4.03219761 13.96286136 1.1875 6.25390625 C0 3 0 3 0 0 Z " fill="#113D77" transform="translate(258,190)"/>
<path d="M0 0 C2.64 0 5.28 0 8 0 C8 82.5 8 165 8 250 C5.36 250 2.72 250 0 250 C0 167.5 0 85 0 0 Z " fill="#000000" transform="translate(245,125)"/>
</svg>
